<?xml version="1.0" encoding="UTF-8"?>
<svg width="178px" height="53px" viewBox="0 0 178 53" version="1.1" xmlns="http://www.w3.org/2000/svg" xmlns:xlink="http://www.w3.org/1999/xlink">
    <!-- Generator: Sketch 42 (36781) - http://www.bohemiancoding.com/sketch -->
    <title>Group</title>
    <desc>Created with Sketch.</desc>
    <defs></defs>
    <g id="Page-5" stroke="none" stroke-width="1" fill="none" fill-rule="evenodd">
        <g id="Desktop-HD-Copy-51" transform="translate(-188.000000, -699.000000)">
            <g id="Group" transform="translate(188.000000, 699.000000)">
                <g id="Group-5">
                    <path d="M5.64,1.80681818 C3.12,1.80681818 1.2,3.85454545 1.2,6.26363636 L1.2,46.7363636 C1.2,49.1454545 3.24,51.1931818 5.64,51.1931818 L171.84,51.1931818 C174.36,51.1931818 176.28,49.1454545 176.28,46.7363636 L176.28,6.26363636 C176.28,3.73409091 174.24,1.80681818 171.84,1.80681818 L5.64,1.80681818 Z" id="Path" fill="#B3A784"></path>
                    <path d="M171.96,52.3977273 L5.76,52.3977273 C2.64,52.3977273 0.12,49.8681818 0.12,46.7363636 L0.12,6.26363636 C0.12,3.13181818 2.64,0.602272727 5.76,0.602272727 L171.96,0.602272727 C175.08,0.602272727 177.6,3.13181818 177.6,6.26363636 L177.6,46.7363636 C177.6,49.8681818 175.08,52.3977273 171.96,52.3977273 Z M5.64,1.80681818 C3.12,1.80681818 1.2,3.85454545 1.2,6.26363636 L1.2,46.7363636 C1.2,49.1454545 3.24,51.1931818 5.64,51.1931818 L171.84,51.1931818 C174.36,51.1931818 176.28,49.1454545 176.28,46.7363636 L176.28,6.26363636 C176.28,3.73409091 174.24,1.80681818 171.84,1.80681818 L5.64,1.80681818 Z" id="Shape" fill="#FFFFFF"></path>
                    <path d="M43.32,19.7545455 C41.28,16.8636364 38.28,16.3818182 37.2,16.3818182 C34.56,16.1409091 32.16,17.9477273 30.84,17.9477273 C29.52,17.9477273 27.48,16.3818182 25.32,16.5022727 C22.56,16.5022727 19.92,18.1886364 18.48,20.7181818 C15.48,25.8977273 17.76,33.6068182 20.52,37.7022727 C21.96,39.75 23.64,42.0386364 25.8,41.9181818 C27.96,41.7977273 28.68,40.5931818 31.32,40.5931818 C33.84,40.5931818 34.68,41.9181818 36.84,41.9181818 C39.12,41.9181818 40.56,39.8704545 42,37.8227273 C43.68,35.4136364 44.28,33.125 44.4,33.0045455 C44.4,33.0045455 39.96,31.3181818 39.96,26.1386364 C39.6,21.9227273 43.2,19.875 43.32,19.7545455 Z" id="Shape" fill="#FFFFFF"></path>
                    <path d="M35.52,13.6113636 C36.72,12.1659091 37.44,10.2386364 37.2,8.19090909 C35.52,8.31136364 33.48,9.39545455 32.28,10.7204545 C31.2,11.925 30.24,13.9727273 30.48,15.9 C32.4,16.1409091 34.32,15.0568182 35.52,13.6113636 Z" id="Shape" fill="#FFFFFF"></path>
                    <path d="M66,36.6181818 L67.68,41.7977273 L70.68,41.7977273 L65.04,24.2113636 L61.56,24.2113636 L55.92,41.7977273 L58.8,41.7977273 L60.36,36.6181818 L66,36.6181818 Z M62.28,29.7522727 C62.64,28.3068182 62.88,27.2227273 63.12,26.3795455 L63.12,26.3795455 C63.6,28.0659091 63.84,29.2704545 63.96,29.7522727 L65.4,34.3295455 L60.72,34.3295455 L62.28,29.7522727 Z" id="Shape" fill="#FFFFFF"></path>
                    <path d="M75.84,46.9772727 L75.84,40.2318182 L75.84,40.2318182 C76.56,41.4363636 77.76,42.0386364 79.44,42.0386364 C81,42.0386364 82.32,41.4363636 83.28,40.3522727 C84.48,39.1477273 85.08,37.3409091 85.08,35.1727273 C85.08,33.2454545 84.6,31.6795455 83.64,30.475 C82.68,29.2704545 81.36,28.6681818 79.92,28.6681818 C78,28.6681818 76.56,29.3909091 75.72,30.9568182 L75.72,30.9568182 L75.6,28.9090909 L73.08,28.9090909 C73.2,30.3545455 73.2,31.6795455 73.2,33.125 L73.2,46.9772727 L75.84,46.9772727 Z M75.84,34.45 C75.84,34.2090909 75.84,33.9681818 75.96,33.6068182 C76.08,32.8840909 76.56,32.2818182 77.04,31.8 C77.64,31.3181818 78.24,31.0772727 78.96,31.0772727 C80.04,31.0772727 80.76,31.4386364 81.36,32.2818182 C81.96,33.125 82.2,34.0886364 82.2,35.2931818 C82.2,36.6181818 81.96,37.7022727 81.36,38.5454545 C80.76,39.3886364 79.92,39.75 78.84,39.75 C78,39.75 77.16,39.3886364 76.68,38.7863636 C76.08,38.1840909 75.84,37.3409091 75.84,36.4977273 L75.84,34.45 Z" id="Shape" fill="#FFFFFF"></path>
                    <path d="M90.36,46.9772727 L90.36,40.2318182 L90.36,40.2318182 C91.08,41.4363636 92.28,42.0386364 93.96,42.0386364 C95.52,42.0386364 96.84,41.4363636 97.8,40.3522727 C99,39.1477273 99.6,37.3409091 99.6,35.1727273 C99.6,33.2454545 99.12,31.6795455 98.16,30.475 C97.2,29.2704545 95.88,28.6681818 94.44,28.6681818 C92.52,28.6681818 91.08,29.3909091 90.24,30.9568182 L90.24,30.9568182 L90.12,28.9090909 L87.6,28.9090909 C87.72,30.3545455 87.72,31.6795455 87.72,33.125 L87.72,46.9772727 L90.36,46.9772727 Z M90.36,34.45 C90.36,34.2090909 90.36,33.9681818 90.48,33.6068182 C90.6,32.8840909 90.96,32.2818182 91.56,31.8 C92.16,31.3181818 92.76,31.0772727 93.48,31.0772727 C94.56,31.0772727 95.28,31.4386364 95.88,32.2818182 C96.48,33.125 96.72,34.0886364 96.72,35.2931818 C96.72,36.6181818 96.48,37.7022727 95.88,38.5454545 C95.28,39.3886364 94.44,39.75 93.36,39.75 C92.4,39.75 91.68,39.3886364 91.2,38.7863636 C90.6,38.1840909 90.36,37.3409091 90.36,36.4977273 L90.36,34.45 Z" id="Shape" fill="#FFFFFF"></path>
                    <path d="M109.68,39.6295455 C108.24,39.6295455 106.8,39.2681818 105.6,38.5454545 L105,40.9545455 C106.2,41.6772727 107.64,42.0386364 109.56,42.0386364 C111.6,42.0386364 113.16,41.5568182 114.36,40.4727273 C115.44,39.5090909 115.92,38.3045455 115.92,36.8590909 C115.92,35.6545455 115.56,34.5704545 114.84,33.8477273 C114.12,33.0045455 113.04,32.2818182 111.48,31.6795455 C110.28,31.1977273 109.44,30.7159091 108.96,30.3545455 C108.48,29.8727273 108.12,29.2704545 108.12,28.6681818 C108.12,28.0659091 108.36,27.4636364 108.84,27.1022727 C109.44,26.6204545 110.16,26.3795455 111.12,26.3795455 C112.32,26.3795455 113.52,26.6204545 114.48,27.2227273 L115.2,24.9340909 C114.12,24.3318182 112.8,24.0909091 111.24,24.0909091 C109.44,24.0909091 108,24.5727273 106.92,25.5363636 C105.84,26.5 105.36,27.7045455 105.36,29.15 C105.36,31.3181818 106.92,33.0045455 109.92,34.2090909 C111,34.5704545 111.84,35.0522727 112.32,35.5340909 C112.8,36.0159091 113.04,36.6181818 113.04,37.3409091 C113.04,38.1840909 112.8,38.7863636 112.2,39.2681818 C111.6,39.3886364 110.76,39.6295455 109.68,39.6295455 Z" id="Shape" fill="#FFFFFF"></path>
                    <path d="M119.28,26.7409091 L119.28,29.0295455 L117.48,29.0295455 L117.48,31.1977273 L119.28,31.1977273 L119.28,37.5818182 C119.28,39.1477273 119.64,40.3522727 120.24,40.9545455 C120.84,41.6772727 121.68,41.9181818 122.88,41.9181818 C123.84,41.9181818 124.56,41.7977273 125.04,41.5568182 L124.92,39.3886364 C124.56,39.5090909 124.2,39.5090909 123.72,39.5090909 C122.64,39.5090909 122.04,38.6659091 122.04,37.1 L122.04,30.9568182 L125.16,30.9568182 L125.16,28.7886364 L122.04,28.7886364 L122.04,25.6568182 L119.28,26.7409091 Z" id="Shape" fill="#FFFFFF"></path>
                    <path d="M137.4,40.1113636 C138.48,38.9068182 139.08,37.2204545 139.08,35.2931818 C139.08,33.3659091 138.6,31.8 137.52,30.5954545 C136.44,29.3909091 134.88,28.7886364 133.08,28.7886364 C131.16,28.7886364 129.6,29.3909091 128.52,30.7159091 C127.44,31.9204545 126.84,33.6068182 126.84,35.5340909 C126.84,37.4613636 127.44,39.0272727 128.52,40.2318182 C129.6,41.4363636 131.04,42.0386364 132.96,42.0386364 C134.76,42.0386364 136.32,41.4363636 137.4,40.1113636 Z M130.32,38.425 C129.84,37.5818182 129.6,36.6181818 129.6,35.4136364 C129.6,34.2090909 129.84,33.125 130.32,32.4022727 C130.92,31.4386364 131.76,30.8363636 132.84,30.8363636 C133.92,30.8363636 134.76,31.3181818 135.36,32.4022727 C135.84,33.2454545 136.08,34.2090909 136.08,35.4136364 C136.08,36.6181818 135.84,37.5818182 135.36,38.425 C134.76,39.5090909 133.92,39.9909091 132.84,39.9909091 C131.76,39.9909091 130.92,39.5090909 130.32,38.425 Z" id="Shape" fill="#FFFFFF"></path>
                    <path d="M144.36,41.7977273 L144.36,35.1727273 C144.36,34.2090909 144.6,33.3659091 145.08,32.6431818 C145.56,31.9204545 146.4,31.5590909 147.36,31.5590909 C147.72,31.5590909 147.96,31.5590909 148.2,31.6795455 L148.2,29.0295455 L147.48,29.0295455 C146.76,29.0295455 146.04,29.2704545 145.44,29.7522727 C144.84,30.2340909 144.36,30.9568182 144,31.8 L143.88,31.8 L143.76,29.3909091 L141.36,29.3909091 C141.48,30.5954545 141.48,31.9204545 141.48,33.3659091 L141.48,42.0386364 L144.36,42.0386364 L144.36,41.7977273 Z" id="Shape" fill="#FFFFFF"></path>
                    <path d="M160.8,34.8113636 C160.8,33.2454545 160.44,31.9204545 159.72,30.8363636 C158.76,29.5113636 157.44,28.7886364 155.64,28.7886364 C153.84,28.7886364 152.28,29.5113636 151.2,30.8363636 C150.12,32.1613636 149.64,33.7272727 149.64,35.6545455 C149.64,37.5818182 150.24,39.1477273 151.32,40.3522727 C152.4,41.5568182 153.96,42.0386364 155.88,42.0386364 C157.56,42.0386364 158.88,41.7977273 160.08,41.1954545 L159.6,39.2681818 C158.52,39.6295455 157.44,39.8704545 156.24,39.8704545 C155.16,39.8704545 154.2,39.6295455 153.48,39.0272727 C152.64,38.425 152.28,37.4613636 152.28,36.1363636 L160.68,36.1363636 C160.68,35.775 160.8,35.2931818 160.8,34.8113636 Z M158.04,34.0886364 L158.04,34.0886364 L152.16,34.0886364 C152.28,33.2454545 152.52,32.5227273 153,31.9204545 C153.6,31.1977273 154.32,30.7159091 155.28,30.7159091 C156.24,30.7159091 157.08,31.0772727 157.56,31.9204545 C157.92,32.5227273 158.04,33.2454545 158.04,34.0886364 L158.04,34.0886364 L158.04,34.0886364 Z" id="Shape" fill="#FFFFFF"></path>
                    <path d="M64.56,13.25 C64.56,11.8045455 64.08,10.8409091 63.24,9.99772727 C62.52,9.39545455 61.32,9.03409091 59.88,9.03409091 C59.04,9.03409091 58.2,9.15454545 57.48,9.15454545 L57.48,17.7068182 C58.08,17.8272727 58.68,17.8272727 59.52,17.8272727 C61.08,17.8272727 62.28,17.4659091 63.24,16.7431818 C64.08,16.0204545 64.56,14.8159091 64.56,13.25 Z M62.28,15.9 C61.68,16.5022727 60.84,16.7431818 59.88,16.7431818 L58.92,16.7431818 L58.92,10.2386364 C59.28,10.1181818 59.64,10.1181818 60,10.1181818 C61.08,10.1181818 61.8,10.3590909 62.28,10.9613636 C62.76,11.4431818 63.12,12.2863636 63.12,13.25 C63.12,14.4545455 62.88,15.2977273 62.28,15.9 Z" id="Shape" fill="#FFFFFF"></path>
                    <path d="M71.52,16.9840909 C72.12,16.3818182 72.36,15.5386364 72.36,14.575 C72.36,13.6113636 72.12,12.8886364 71.52,12.2863636 C70.92,11.6840909 70.2,11.3227273 69.36,11.3227273 C68.4,11.3227273 67.68,11.6840909 67.08,12.2863636 C66.48,12.8886364 66.24,13.7318182 66.24,14.6954545 C66.24,15.6590909 66.48,16.3818182 67.08,16.9840909 C67.68,17.5863636 68.4,17.9477273 69.24,17.9477273 C70.2,17.9477273 70.92,17.5863636 71.52,16.9840909 Z M68.04,16.1409091 C67.8,15.7795455 67.68,15.1772727 67.68,14.6954545 C67.68,14.0931818 67.8,13.6113636 68.04,13.1295455 C68.28,12.6477273 68.76,12.4068182 69.36,12.4068182 C69.84,12.4068182 70.32,12.6477273 70.56,13.1295455 C70.8,13.4909091 70.92,14.0931818 70.92,14.575 C70.92,15.0568182 70.8,15.6590909 70.56,16.0204545 C70.32,16.5022727 69.84,16.7431818 69.36,16.7431818 C68.76,16.9840909 68.28,16.7431818 68.04,16.1409091 Z" id="Shape" fill="#FFFFFF"></path>
                    <path d="M77.64,15.0568182 C77.88,14.4545455 78,13.7318182 78.12,13.0090909 L78.12,13.0090909 C78.24,13.7318182 78.36,14.3340909 78.6,15.0568182 L79.44,17.8272727 L80.76,17.8272727 L82.68,11.5636364 L81.36,11.5636364 L80.64,14.4545455 C80.4,15.1772727 80.28,15.9 80.16,16.5022727 L80.16,16.5022727 C80.04,15.9 79.92,15.1772727 79.68,14.4545455 L78.84,11.5636364 L77.76,11.5636364 L76.92,14.575 C76.68,15.4181818 76.56,16.0204545 76.44,16.6227273 L76.44,16.6227273 C76.32,16.0204545 76.2,15.2977273 75.96,14.575 L75.24,11.5636364 L73.8,11.5636364 L75.6,17.8272727 L76.92,17.8272727 L77.64,15.0568182 Z" id="Shape" fill="#FFFFFF"></path>
                    <path d="M89.76,17.8272727 L89.76,14.0931818 C89.76,13.1295455 89.52,12.5272727 89.04,12.0454545 C88.68,11.6840909 88.2,11.4431818 87.6,11.4431818 C87.12,11.4431818 86.76,11.5636364 86.4,11.8045455 C86.04,12.0454545 85.8,12.2863636 85.68,12.5272727 L85.68,12.5272727 L85.56,11.5636364 L84.36,11.5636364 L84.36,13.3704545 L84.36,17.8272727 L85.68,17.8272727 L85.68,14.0931818 C85.68,13.7318182 85.8,13.3704545 86.04,13.0090909 C86.28,12.6477273 86.64,12.5272727 87,12.5272727 C87.84,12.5272727 88.2,13.1295455 88.2,14.2136364 L88.2,17.8272727 L89.76,17.8272727 Z" id="Shape" fill="#FFFFFF"></path>
                    <rect id="Rectangle-path" fill="#FFFFFF" x="92.16" y="8.67272727" width="1.32" height="9.15454545"></rect>
                    <path d="M100.92,16.9840909 C101.52,16.3818182 101.76,15.5386364 101.76,14.575 C101.76,13.6113636 101.52,12.8886364 100.92,12.2863636 C100.32,11.6840909 99.6,11.3227273 98.76,11.3227273 C97.8,11.3227273 97.08,11.6840909 96.48,12.2863636 C95.88,12.8886364 95.64,13.7318182 95.64,14.6954545 C95.64,15.6590909 95.88,16.3818182 96.48,16.9840909 C96.96,17.5863636 97.8,17.9477273 98.64,17.9477273 C99.6,17.9477273 100.32,17.5863636 100.92,16.9840909 Z M97.44,16.1409091 C97.2,15.7795455 97.08,15.1772727 97.08,14.6954545 C97.08,14.0931818 97.2,13.6113636 97.44,13.1295455 C97.68,12.6477273 98.16,12.4068182 98.76,12.4068182 C99.24,12.4068182 99.72,12.6477273 99.96,13.1295455 C100.2,13.4909091 100.32,14.0931818 100.32,14.575 C100.32,15.0568182 100.2,15.6590909 99.96,16.0204545 C99.72,16.5022727 99.24,16.7431818 98.76,16.7431818 C98.16,16.9840909 97.68,16.7431818 97.44,16.1409091 Z" id="Shape" fill="#FFFFFF"></path>
                    <path d="M104.28,14.3340909 C103.68,14.6954545 103.32,15.2977273 103.32,16.1409091 C103.32,16.6227273 103.44,17.1045455 103.8,17.4659091 C104.16,17.8272727 104.64,18.0681818 105.24,18.0681818 C106.08,18.0681818 106.68,17.8272727 107.04,17.225 L107.04,17.225 L107.16,17.9477273 L108.36,17.9477273 C108.36,17.5863636 108.24,17.1045455 108.24,16.5022727 L108.24,14.2136364 C108.24,12.5272727 107.4,11.6840909 105.84,11.6840909 C105,11.6840909 104.28,11.8045455 103.68,12.1659091 L103.92,13.1295455 C104.4,12.7681818 104.88,12.6477273 105.48,12.6477273 C106.32,12.6477273 106.8,13.0090909 106.8,13.8522727 L106.8,13.9727273 C105.72,13.7318182 104.88,13.9727273 104.28,14.3340909 Z M106.92,14.6954545 L106.92,15.6590909 L106.92,15.9 C106.92,16.1409091 106.68,16.5022727 106.44,16.6227273 C106.2,16.8636364 105.84,16.8636364 105.6,16.8636364 C105.36,16.8636364 105.12,16.7431818 104.88,16.6227273 C104.76,16.5022727 104.64,16.2613636 104.64,15.9 C104.64,15.0568182 105.36,14.6954545 106.92,14.6954545 Z" id="Shape" fill="#FFFFFF"></path>
                    <path d="M114.72,8.67272727 L114.72,12.2863636 L114.72,12.2863636 C114.36,11.6840909 113.76,11.4431818 112.92,11.4431818 C112.2,11.4431818 111.48,11.6840909 111,12.2863636 C110.52,12.8886364 110.16,13.7318182 110.16,14.6954545 C110.16,15.6590909 110.4,16.3818182 110.88,16.9840909 C111.36,17.5863636 111.96,17.8272727 112.8,17.8272727 C113.76,17.8272727 114.36,17.4659091 114.84,16.6227273 L114.84,16.6227273 L114.96,17.5863636 L116.16,17.5863636 L116.16,15.9 L116.16,8.43181818 L114.72,8.43181818 L114.72,8.67272727 Z M114.72,15.1772727 C114.72,15.6590909 114.6,16.0204545 114.36,16.2613636 C114.12,16.6227273 113.76,16.7431818 113.28,16.7431818 C112.8,16.7431818 112.32,16.5022727 112.08,16.1409091 C111.84,15.7795455 111.6,15.2977273 111.6,14.6954545 C111.6,14.0931818 111.72,13.4909091 112.08,13.1295455 C112.32,12.7681818 112.8,12.5272727 113.28,12.5272727 C113.64,12.5272727 114,12.6477273 114.24,12.8886364 C114.48,13.1295455 114.72,13.3704545 114.72,13.7318182 L114.72,14.2136364 L114.72,15.1772727 Z" id="Shape" fill="#FFFFFF"></path>
                    <path d="M127.2,16.9840909 C127.8,16.3818182 128.04,15.5386364 128.04,14.575 C128.04,13.6113636 127.8,12.8886364 127.2,12.2863636 C126.6,11.6840909 125.88,11.3227273 125.04,11.3227273 C124.08,11.3227273 123.36,11.6840909 122.76,12.2863636 C122.16,12.8886364 121.92,13.7318182 121.92,14.6954545 C121.92,15.6590909 122.16,16.3818182 122.76,16.9840909 C123.36,17.5863636 124.08,17.9477273 124.92,17.9477273 C125.88,17.9477273 126.6,17.5863636 127.2,16.9840909 Z M123.72,16.1409091 C123.48,15.7795455 123.36,15.1772727 123.36,14.6954545 C123.36,14.0931818 123.48,13.6113636 123.72,13.1295455 C123.96,12.6477273 124.44,12.4068182 125.04,12.4068182 C125.52,12.4068182 126,12.6477273 126.24,13.1295455 C126.48,13.4909091 126.6,14.0931818 126.6,14.575 C126.6,15.0568182 126.48,15.6590909 126.24,16.0204545 C126,16.5022727 125.52,16.7431818 125.04,16.7431818 C124.44,16.9840909 123.96,16.7431818 123.72,16.1409091 Z" id="Shape" fill="#FFFFFF"></path>
                    <path d="M135.36,17.8272727 L135.36,14.0931818 C135.36,13.1295455 135.12,12.5272727 134.64,12.0454545 C134.28,11.6840909 133.8,11.4431818 133.2,11.4431818 C132.72,11.4431818 132.36,11.5636364 132,11.8045455 C131.64,12.0454545 131.4,12.2863636 131.28,12.5272727 L131.28,12.5272727 L131.16,11.5636364 L129.96,11.5636364 L129.96,13.3704545 L129.96,17.8272727 L131.4,17.8272727 L131.4,14.0931818 C131.4,13.7318182 131.52,13.3704545 131.76,13.0090909 C132,12.6477273 132.36,12.5272727 132.72,12.5272727 C133.56,12.5272727 133.92,13.1295455 133.92,14.2136364 L133.92,17.8272727 L135.36,17.8272727 Z" id="Shape" fill="#FFFFFF"></path>
                    <path d="M141.84,10.3590909 L141.84,11.5636364 L140.88,11.5636364 L140.88,12.6477273 L141.84,12.6477273 L141.84,15.7795455 C141.84,16.6227273 141.96,17.1045455 142.32,17.4659091 C142.68,17.8272727 143.04,17.9477273 143.64,17.9477273 C144.12,17.9477273 144.48,17.9477273 144.72,17.8272727 L144.72,16.7431818 C144.6,16.7431818 144.36,16.8636364 144.12,16.8636364 C143.64,16.8636364 143.28,16.5022727 143.28,15.6590909 L143.28,12.6477273 L144.84,12.6477273 L144.84,11.5636364 L143.28,11.5636364 L143.28,9.99772727 L141.84,10.3590909 Z" id="Shape" fill="#FFFFFF"></path>
                    <path d="M146.64,8.67272727 L146.64,17.8272727 L147.96,17.8272727 L147.96,14.0931818 C147.96,13.8522727 147.96,13.7318182 148.08,13.6113636 C148.32,13.0090909 148.8,12.6477273 149.4,12.6477273 C150.24,12.6477273 150.6,13.25 150.6,14.3340909 L150.6,17.8272727 L151.92,17.8272727 L151.92,14.0931818 C151.92,13.1295455 151.68,12.5272727 151.2,12.0454545 C150.84,11.6840909 150.36,11.4431818 149.76,11.4431818 C148.92,11.4431818 148.32,11.8045455 147.84,12.5272727 L147.84,12.5272727 L147.84,8.79318182 L146.64,8.79318182 L146.64,8.67272727 Z" id="Shape" fill="#FFFFFF"></path>
                    <path d="M156.96,11.4431818 C156,11.4431818 155.28,11.8045455 154.8,12.4068182 C154.32,13.0090909 154.08,13.8522727 154.08,14.8159091 C154.08,15.7795455 154.32,16.5022727 154.92,17.1045455 C155.52,17.7068182 156.24,17.9477273 157.2,17.9477273 C158.04,17.9477273 158.64,17.8272727 159.24,17.5863636 L159,16.6227273 C158.52,16.8636364 157.92,16.8636364 157.32,16.8636364 C156.72,16.8636364 156.36,16.7431818 156,16.3818182 C155.64,16.0204545 155.4,15.5386364 155.4,14.9363636 L159.48,14.9363636 L159.48,14.3340909 C159.48,13.6113636 159.24,12.8886364 158.88,12.4068182 C158.52,11.8045455 157.8,11.4431818 156.96,11.4431818 Z M155.28,13.9727273 C155.28,13.6113636 155.52,13.25 155.64,12.8886364 C155.88,12.5272727 156.24,12.2863636 156.72,12.2863636 C157.2,12.2863636 157.56,12.5272727 157.8,12.8886364 C158.04,13.1295455 158.04,13.4909091 158.04,13.9727273 L155.28,13.9727273 Z" id="Shape" fill="#FFFFFF"></path>
                </g>
            </g>
        </g>
    </g>
</svg>